<svg width="320" height="180" viewBox="0 0 320 180" fill="none" xmlns="http://www.w3.org/2000/svg" role="img" aria-label="Camera and smiling-face age-check illustration">
  <!-- Smiley+heart card (right), 100px card tilted +15deg, centered at (199.07, 75.25) -->
  <g transform="translate(199.07 75.25) rotate(15) translate(-50 -50)" fill="#F7F7F8">
    <path opacity="0.16" d="M96.2061 0.00488387C98.3194 0.112117 100 1.85997 100 4V96L99.9951 96.2061C99.8879 98.3194 98.14 100 96 100H28.4062L27.54 98.5H96C97.3807 98.5 98.5 97.3807 98.5 96L98.5 4C98.5 2.61929 97.3807 1.5 96 1.5L4 1.5C2.61929 1.5 1.5 2.61929 1.5 4L1.5 53.3955L1.70528e-07 50.7979L0 4C1.14973e-06 1.85997 1.68056 0.112117 3.79395 0.00488482L4 2.2505e-06L96 0L96.2061 0.00488387Z"/>
    <path d="M62.459 58.7142C62.459 53.2362 66.9002 48.7952 72.3782 48.7952L72.9586 48.7954C78.7575 48.7954 83.4586 53.496 83.4586 59.2949L83.4585 66.0445C83.4585 71.8434 78.7578 76.5444 72.9589 76.5446L67.6866 76.5449C64.9022 76.5448 62.2318 75.4386 60.2628 73.4699L53.9541 67.1612C52.1008 65.308 51.8383 62.3953 53.281 60.2311C55.1734 57.393 59.2253 56.9403 61.6619 59.3766C61.9559 59.6706 62.4591 59.4625 62.4591 59.0468L62.459 58.7142ZM72.3772 51.7952C68.5563 51.7954 65.4586 54.8932 65.4586 58.7142L65.4588 59.0468C65.4588 62.1352 61.7248 63.6817 59.5409 61.4979C58.4675 60.4245 56.6398 60.6039 55.7783 61.8954C55.1177 62.8863 55.2469 64.212 56.075 65.04L62.3837 71.3487C63.7901 72.7549 65.6978 73.5451 67.6866 73.5452L72.9589 73.5449C77.101 73.5448 80.4588 70.1866 80.4588 66.0445L80.4589 59.295C80.4589 55.1528 77.1007 51.7951 72.9586 51.7951L72.3772 51.7952ZM22.3417 36.8817C22.3418 29.8401 28.0499 24.1317 35.0915 24.1317L62.0916 24.1319C67.311 24.132 71.7949 27.2679 73.7674 31.7524C74.101 32.5107 73.7564 33.3963 72.9981 33.7298C72.2398 34.0633 71.3542 33.7188 71.0207 32.9605C69.5099 29.5256 66.0788 27.1317 62.0916 27.1315L35.0915 27.1314C29.7067 27.1314 25.3415 31.4969 25.3414 36.8817L25.3413 63.8818C25.3414 69.2664 29.7068 73.6319 35.0915 73.6319L49.7502 73.6319C50.5783 73.6322 51.25 74.3035 51.25 75.1317C51.2499 75.96 50.5776 76.6318 49.7493 76.6318L35.0915 76.6315C28.05 76.6315 22.3417 70.9233 22.3416 63.8818L22.3417 36.8817ZM49.0592 51.0329C50.3631 50.6836 51.8999 51.7421 51.5785 53.3565C50.9852 56.3356 48.7587 58.8778 45.6199 59.719C42.4809 60.56 39.2817 59.4716 37.2783 57.1882C36.1928 55.9508 36.9944 54.2657 38.2982 53.9163L49.0592 51.0329ZM65.6465 41.2138C67.9067 40.2989 70.3762 39.7952 72.9592 39.7952C75.5422 39.7953 78.0118 40.2988 80.2718 41.2136C81.0393 41.5246 81.41 42.3989 81.0994 43.1665C80.7886 43.9343 79.9143 44.3047 79.1465 43.9941C77.2378 43.2215 75.1491 42.7951 72.9583 42.7951C70.7676 42.7952 68.6795 43.2225 66.7709 43.9951C66.0032 44.3052 65.1288 43.9342 64.8181 43.1666C64.5074 42.3987 64.8787 41.5246 65.6465 41.2138ZM32.3839 40.7483C34.1843 40.2659 36.035 41.3344 36.5174 43.1348C36.9996 44.9351 35.9312 46.7859 34.1309 47.2683C32.3306 47.7507 30.48 46.682 29.9974 44.8818C29.515 43.0814 30.5834 41.2307 32.3839 40.7483ZM47.5972 36.6719C49.3977 36.1895 51.2483 37.258 51.7307 39.0584C52.2129 40.8587 51.1445 42.7095 49.3442 43.1919C47.5439 43.6743 45.6933 42.6056 45.2107 40.8054C44.7283 39.005 45.7968 37.1543 47.5972 36.6719Z"/>
  </g>

  <!-- Camera card (left front), 100px plain card tilted -15deg + 72px camera icon, centered at (110, 104.87) -->
  <path opacity="0.16" fill="#F7F7F8" transform="translate(110 104.87) rotate(-15) translate(-50 -50)" fill-rule="evenodd" clip-rule="evenodd" d="M96.2061 0.00488281C98.3194 0.112116 100 1.85996 100 4V96L99.9951 96.2061C99.8879 98.3194 98.14 100 96 100H4C1.79086 100 0 98.2091 0 96L0 4C1.1234e-06 1.85996 1.68056 0.112115 3.79395 0.00488281L4 0H96L96.2061 0.00488281ZM4 1.5C2.61929 1.5 1.5 2.61929 1.5 4V96C1.5 97.3807 2.61929 98.5 4 98.5H96C97.3807 98.5 98.5 97.3807 98.5 96V4C98.5 2.61929 97.3807 1.5 96 1.5H4Z"/>
  <g transform="translate(110 104.87) rotate(-15) translate(-50 -50) translate(14 14)">
    <path fill="#F7F7F8" d="M42.1953 12C43.4605 12 44.6875 12.5828 45.4395 13.624L49.1416 18.75H58.125C61.5305 18.75 64.5 21.3255 64.5 24.75V52.5605C64.5 55.5101 62.2504 57.9343 59.2627 58.3398C54.3297 59.0092 47.3628 60 36 60C24.6372 60 17.6703 59.0092 12.7373 58.3398C9.74957 57.9343 7.5 55.5101 7.5 52.5605V24.75C7.5 21.3255 10.4695 18.75 13.875 18.75H22.8584L26.5605 13.624C27.3125 12.5828 28.5395 12 29.8047 12H42.1953ZM29.8047 15C29.44 15 29.1444 15.1692 28.9922 15.3799L24.8408 21.1279L24.3916 21.75H13.875C11.8957 21.75 10.5 23.2039 10.5 24.75V52.5605C10.5 53.9009 11.5305 55.1486 13.1406 55.3672C18.0314 56.0308 24.8405 57 36 57C47.1595 57 53.9686 56.0308 58.8594 55.3672C60.4695 55.1486 61.5 53.9009 61.5 52.5605V24.75C61.5 23.2039 60.1043 21.75 58.125 21.75H47.6084L47.1592 21.1279L43.0078 15.3799C42.8556 15.1692 42.56 15 42.1953 15H29.8047Z"/>
    <path fill="#FFFFFF" d="M27.6895 42.2598C27.3754 40.681 28.8785 39.6505 30.1475 39.9902L39.9131 42.6064C41.182 42.9467 41.9679 44.5905 40.9062 45.8008C39.0549 47.9112 36.0987 48.9179 33.1973 48.1406C30.2958 47.3632 28.2377 45.0131 27.6895 42.2598ZM46.3467 31.9922C48.038 31.9922 49.4091 33.3634 49.4092 35.0547C49.4092 36.7461 48.0381 38.1172 46.3467 38.1172C44.6553 38.1172 43.2842 36.7461 43.2842 35.0547C43.2843 33.3634 44.6554 31.9922 46.3467 31.9922ZM27.9717 27.9092C29.6631 27.9092 31.0342 29.2803 31.0342 30.9717C31.0341 32.663 29.663 34.0342 27.9717 34.0342C26.2803 34.0342 24.9092 32.663 24.9092 30.9717C24.9092 29.2803 26.2803 27.9092 27.9717 27.9092Z"/>
  </g>
</svg>
