<svg width="320" height="180" viewBox="0 0 320 180" fill="none" xmlns="http://www.w3.org/2000/svg" role="img" aria-label="Smiling-face, shield and camera age-check illustration">
  <!-- Smiley card (bottom-left), 60px icon tilted 15deg, centered at (91.04, 100.97) -->
  <g transform="translate(91.04 100.97) rotate(15) translate(-32.33 -30)">
    <path opacity="0.16" fill="#F7F7F8" d="M42.2781 1.5H6.07794C4.8366 1.5 3.82995 2.50672 3.82989 3.74805V56.252C3.82989 57.4933 4.83656 58.5 6.07794 58.5H58.5818C59.823 58.4998 60.8299 57.4932 60.8299 56.252V33.6328L62.3299 36.2305V56.252L62.325 56.4453C62.2278 58.3613 60.6912 59.8977 58.7752 59.9951L58.5818 60H6.07794L5.88458 59.9951C3.90448 59.8947 2.32989 58.257 2.32989 56.252V3.74805C2.32995 1.74303 3.90452 0.105344 5.88458 0.00488281L6.07794 0H41.4119L42.2781 1.5Z"/>
    <path fill="#FFFFFF" d="M13.2323 19.9208C13.2324 15.9004 16.3896 12.6172 20.3599 12.416L20.7466 12.4064L41.541 12.4062L41.9278 12.4158C45.8979 12.6173 49.0552 15.9004 49.0554 19.9205L49.0556 40.715L49.046 41.1017C48.8512 44.9441 45.7693 48.0252 41.927 48.22L41.5403 48.2296L20.7468 48.2295L20.3601 48.2199C16.5177 48.0252 13.4369 44.9442 13.242 41.1019L13.2325 40.7152L13.2323 19.9208ZM20.7472 14.9065C17.9778 14.9065 15.7326 17.1517 15.7326 19.9211L15.7325 40.7146C15.7325 43.4839 17.977 45.7291 20.7462 45.7294L41.5407 45.7293C44.3101 45.7293 46.5553 43.4841 46.5553 40.7146L46.5553 19.9211C46.5553 17.1517 44.3101 14.9065 41.5407 14.9065L20.7472 14.9065ZM25.0429 35.8733C24.2829 34.3322 25.5521 32.8684 26.935 32.8681L35.3527 32.8682C36.7355 32.8685 38.0048 34.3323 37.2448 35.8735C36.1375 38.1177 33.8231 39.6676 31.1439 39.6677C28.4647 39.6677 26.1501 38.1176 25.0429 35.8733ZM34.5432 25.2174C34.5434 23.8094 35.6851 22.6678 37.0932 22.6678C38.5015 22.6678 39.6428 23.8096 39.6428 25.2178C39.6428 26.6261 38.501 27.7675 37.0928 27.7675C35.6847 27.7672 34.5432 26.6255 34.5432 25.2174ZM22.6438 25.2181C22.6438 23.81 23.7855 22.6678 25.1936 22.6676C26.6017 22.6676 27.7439 23.8093 27.7441 25.2174C27.7441 26.6255 26.6024 27.7677 25.1943 27.7679C23.7862 27.7679 22.644 26.6262 22.6438 25.2181Z"/>
  </g>

  <!-- Camera card (right), 68px icon tilted 15deg, centered at (235.76, 74.05) -->
  <g transform="translate(235.76 74.05) rotate(15) translate(-34 -34)" fill="#F7F7F8">
    <path opacity="0.16" d="M64.252 0C66.3218 -4.27788e-09 68 1.67824 68 3.74805V64.252L67.9951 64.4453C67.8979 66.3615 66.3615 67.8979 64.4453 67.9951L64.252 68H18.7637L17.8975 66.5H64.252C65.4933 66.5 66.5 65.4933 66.5 64.252V3.74805C66.5 2.50667 65.4933 1.5 64.252 1.5H3.74805C2.50667 1.5 1.5 2.50666 1.5 3.74805V38.0977L0 35.5V3.74805C2.29773e-07 1.74298 1.57459 0.105346 3.55469 0.00488281L3.74805 0H64.252Z"/>
    <path d="M37.4843 17.2634C38.4028 17.2634 39.2992 17.6866 39.8505 18.4499L42.2431 21.7634H48.1044C50.4936 21.7634 52.6044 23.5739 52.6044 26.0134V44.5544C52.6042 46.6547 51.0029 48.3681 48.8964 48.654C45.6042 49.1007 40.9466 49.7634 33.3544 49.7634C25.7622 49.7634 21.1046 49.1007 17.8124 48.654C15.7059 48.3681 14.1046 46.6547 14.1044 44.5544L14.1044 26.0134C14.1044 23.5739 16.2152 21.7634 18.6044 21.7634H24.4657L26.8583 18.4499C27.4096 17.6866 28.306 17.2634 29.2245 17.2634L37.4843 17.2634ZM29.2245 19.7634C29.0567 19.7634 28.9373 19.8417 28.8856 19.9128L26.1181 23.7449L25.7431 24.2634H18.6044C17.4037 24.2634 16.6044 25.1392 16.6044 26.0134L16.6044 44.5544C16.6046 45.3138 17.1899 46.0473 18.1483 46.1775C21.4053 46.6194 25.9317 47.2634 33.3544 47.2634C40.7771 47.2634 45.3035 46.6194 48.5604 46.1775C49.5188 46.0473 50.1042 45.3138 50.1044 44.5544V26.0134C50.1044 25.1392 49.305 24.2634 48.1044 24.2634H40.9657L40.5907 23.7449L37.8231 19.9128C37.7715 19.8417 37.6521 19.7634 37.4843 19.7634L29.2245 19.7634ZM28.4335 28.9353C28.644 28.1505 29.4503 27.6844 30.2353 27.8943L39.202 30.2966C39.987 30.5072 40.4532 31.3143 40.2431 32.0994L37.8407 41.0652L37.7938 41.2087C37.5466 41.8599 36.8721 42.25 36.1845 42.1384L36.037 42.1072L27.0712 39.7038L26.9276 39.658C26.2305 39.3929 25.834 38.6371 26.0311 37.9011L28.4335 28.9353ZM28.7118 37.5554L35.6923 39.4255L37.5624 32.446L30.5819 30.5749L28.7118 37.5554Z"/>
  </g>

  <!-- Shield card (center front): 94px card tilted -15deg + 72px upright shield-lock, centered at (162.30, 90.39) -->
  <rect x="0" y="0" width="94" height="94" rx="3.748" fill="none" stroke="#F7F7F8" stroke-width="1.5" opacity="0.16" transform="translate(162.30 90.39) rotate(-15) translate(-47 -47)"/>
  <g transform="translate(162.30 90.39) translate(-36 -36)" fill="#F7F7F8">
    <path d="M34.5757 4.97482C35.4993 4.66702 36.4987 4.66697 37.4223 4.97482L59.9233 12.4748C61.7606 13.0875 63.0021 14.8144 62.9995 16.7512L62.9926 19.1867C62.8816 43.9577 61.2644 56.4138 37.7378 66.757L37.5298 66.842C36.5505 67.2116 35.4514 67.2115 34.4721 66.842L34.2641 66.757C10.736 56.4138 9.11931 43.9578 9.00827 19.1867L9.00143 16.7512C8.99894 14.9354 10.0894 13.3033 11.7397 12.6018L12.0776 12.4748L34.5757 4.97482ZM36.4731 7.82052C36.1655 7.71805 35.8325 7.71808 35.5249 7.82052L13.0258 15.3205C12.4173 15.5235 12.0005 16.1007 12.0014 16.7473C12.0198 30.0955 12.306 39.286 15.3081 46.4973C18.1854 53.4082 23.7489 58.8577 35.4712 64.011C35.8002 64.1554 36.2018 64.1555 36.5307 64.011C48.2524 58.8577 53.8157 53.4083 56.6928 46.4973C59.6948 39.286 59.9811 30.0955 59.9995 16.7473C60.0004 16.1009 59.5834 15.5236 58.9751 15.3205L36.4731 7.82052Z"/>
    <path d="M36.3812 17.7598C40.2217 17.9547 43.2757 21.1305 43.2757 25.0195V27.4424H45.6995L45.8861 27.4473C47.8066 27.5445 49.3343 29.1325 49.3343 31.0771V45.3291L49.3275 45.5C49.267 46.3491 48.7577 47.1009 47.9476 47.3906L47.5472 47.5293C45.4243 48.2448 41.4697 49.25 36.0071 49.25L34.9349 49.2373C30.0256 49.1176 26.4486 48.1971 24.4671 47.5293L24.0667 47.3906C23.2025 47.0817 22.68 46.2469 22.68 45.3291V31.0771C22.68 29.1326 24.207 27.5448 26.1273 27.4473L26.3148 27.4424H28.7376V25.0195C28.7376 21.005 31.9926 17.7502 36.0071 17.75L36.3812 17.7598ZM26.3148 30.4424C25.9643 30.4424 25.68 30.7267 25.68 31.0771V44.7676C27.6064 45.3908 31.1386 46.25 36.0071 46.25C40.876 46.25 44.408 45.3908 46.3343 44.7676V31.0771C46.3343 30.7268 46.0499 30.4426 45.6995 30.4424H26.3148ZM36.0071 34.4229C36.8354 34.423 37.507 35.0946 37.5071 35.9229V40.7686C37.5071 41.5969 36.8355 42.2684 36.0071 42.2686C35.1787 42.2686 34.5071 41.597 34.5071 40.7686V35.9229C34.5073 35.0945 35.1788 34.4229 36.0071 34.4229ZM36.0071 20.75C33.6495 20.7502 31.7376 22.6618 31.7376 25.0195V27.4395H40.2757V25.0195C40.2757 22.6619 38.3647 20.7503 36.0071 20.75Z"/>
  </g>
</svg>
