<svg width="320" height="180" viewBox="0 0 320 180" fill="none" xmlns="http://www.w3.org/2000/svg" role="img" aria-label="Shield, camera and smiling-face age-check illustration">
  <!-- Shield card (bottom-left), 60px icon tilted 15deg, centered at (91.04, 100.97) -->
  <g transform="translate(91.04 100.97) rotate(15) translate(-30 -30)" fill="#F7F7F8">
    <path opacity="0.16" d="M39.9492 1.5H3.74902C2.50768 1.5 1.50104 2.50672 1.50098 3.74805V56.252C1.50098 57.4933 2.50764 58.5 3.74902 58.5H56.2529C57.4941 58.4998 58.501 57.4932 58.501 56.252V33.6328L60.001 36.2305V56.252L59.9961 56.4453C59.8989 58.3613 58.3622 59.8977 56.4463 59.9951L56.2529 60H3.74902L3.55566 59.9951C1.57556 59.8947 0.000976567 58.257 0.000976562 56.252V3.74805C0.0010341 1.74303 1.5756 0.105344 3.55566 0.00488281L3.74902 0H39.083L39.9492 1.5Z"/>
    <path d="M27.9434 10.7628C28.5592 10.5575 29.2251 10.5576 29.8409 10.7628L43.8956 15.4474C45.1205 15.8558 45.9474 17.0077 45.9454 18.2989L45.9307 21.3097C45.7853 35.8876 44.3431 43.4394 30.0499 49.7423L29.9122 49.7989C29.2597 50.0461 28.5286 50.046 27.876 49.7989L27.7374 49.7423C13.4434 43.4394 12.0019 35.8876 11.8565 21.3097L11.8409 18.2989C11.839 17.0884 12.566 16.0002 13.6661 15.5323L13.8917 15.4474L27.9434 10.7628ZM29.0508 13.1339C28.9483 13.0997 28.837 13.0997 28.7344 13.1339L14.6817 17.8185C14.4812 17.8853 14.3406 18.0788 14.3409 18.295C14.3538 26.7033 14.5505 32.3505 16.3878 36.753C18.1219 40.9084 21.474 44.2475 28.7462 47.4542C28.8355 47.4935 28.9527 47.4936 29.0421 47.4542C36.3134 44.2477 39.6645 40.9082 41.3985 36.753C43.2356 32.3504 43.4324 26.7033 43.4454 18.295C43.4457 18.0788 43.305 17.8853 43.1046 17.8185L29.0508 13.1339Z"/>
    <path d="M29.1336 18.8211C31.5595 18.944 33.489 20.9506 33.489 23.4071V24.9373H34.8924L35.1394 24.95C36.3613 25.074 37.3151 26.1056 37.3152 27.3602V36.1824L37.3113 36.2967C37.2709 36.8624 36.932 37.3624 36.3914 37.5535L35.8504 37.7332C34.4486 38.1716 32.0773 38.7117 28.8972 38.7117L28.2283 38.7029C25.3837 38.6344 23.2466 38.1402 21.9451 37.7332L21.4041 37.5535C20.8273 37.3497 20.4804 36.7942 20.4803 36.1824L20.4803 27.3602C20.4804 26.0221 21.5651 24.9375 22.9031 24.9373H24.3064V23.4071C24.3065 20.8715 26.3627 18.8155 28.8982 18.8153L29.1336 18.8211ZM22.9803 35.4315C24.2115 35.7894 26.2229 36.2117 28.8972 36.2117C31.5718 36.2117 33.5839 35.7894 34.8152 35.4315L34.8152 27.4373H22.9803V35.4315ZM28.8982 29.0438C29.5884 29.044 30.1482 29.6036 30.1482 30.2938V33.3543C30.1481 34.0445 29.5883 34.6041 28.8982 34.6043C28.2079 34.6043 27.6483 34.0446 27.6482 33.3543V30.2938C27.6482 29.6034 28.2079 29.0438 28.8982 29.0438ZM28.8982 21.3153C27.7434 21.3155 26.8065 22.2522 26.8064 23.4071V24.8953H30.989V23.4071C30.989 22.2523 30.0528 21.3157 28.8982 21.3153Z"/>
  </g>

  <!-- Camera card (right), 68px icon tilted 15deg, centered at (235.76, 74.05) -->
  <g transform="translate(235.76 74.05) rotate(15) translate(-34 -34)" fill="#F7F7F8">
    <path opacity="0.16" d="M64.252 0C66.3218 -4.27788e-09 68 1.67824 68 3.74805V64.252L67.9951 64.4453C67.8979 66.3615 66.3615 67.8979 64.4453 67.9951L64.252 68H18.7637L17.8975 66.5H64.252C65.4933 66.5 66.5 65.4933 66.5 64.252V3.74805C66.5 2.50667 65.4933 1.5 64.252 1.5H3.74805C2.50667 1.5 1.5 2.50666 1.5 3.74805V38.0977L0 35.5V3.74805C2.29773e-07 1.74298 1.57459 0.105346 3.55469 0.00488281L3.74805 0H64.252Z"/>
    <path d="M37.4843 17.2634C38.4028 17.2634 39.2992 17.6866 39.8505 18.4499L42.2431 21.7634H48.1044C50.4936 21.7634 52.6044 23.5739 52.6044 26.0134V44.5544C52.6042 46.6547 51.0029 48.3681 48.8964 48.654C45.6042 49.1007 40.9466 49.7634 33.3544 49.7634C25.7622 49.7634 21.1046 49.1007 17.8124 48.654C15.7059 48.3681 14.1046 46.6547 14.1044 44.5544L14.1044 26.0134C14.1044 23.5739 16.2152 21.7634 18.6044 21.7634H24.4657L26.8583 18.4499C27.4096 17.6866 28.306 17.2634 29.2245 17.2634L37.4843 17.2634ZM29.2245 19.7634C29.0567 19.7634 28.9373 19.8417 28.8856 19.9128L26.1181 23.7449L25.7431 24.2634H18.6044C17.4037 24.2634 16.6044 25.1392 16.6044 26.0134L16.6044 44.5544C16.6046 45.3138 17.1899 46.0473 18.1483 46.1775C21.4053 46.6194 25.9317 47.2634 33.3544 47.2634C40.7771 47.2634 45.3035 46.6194 48.5604 46.1775C49.5188 46.0473 50.1042 45.3138 50.1044 44.5544V26.0134C50.1044 25.1392 49.305 24.2634 48.1044 24.2634H40.9657L40.5907 23.7449L37.8231 19.9128C37.7715 19.8417 37.6521 19.7634 37.4843 19.7634L29.2245 19.7634ZM28.4335 28.9353C28.644 28.1505 29.4503 27.6844 30.2353 27.8943L39.202 30.2966C39.987 30.5072 40.4532 31.3143 40.2431 32.0994L37.8407 41.0652L37.7938 41.2087C37.5466 41.8599 36.8721 42.25 36.1845 42.1384L36.037 42.1072L27.0712 39.7038L26.9276 39.658C26.2305 39.3929 25.834 38.6371 26.0311 37.9011L28.4335 28.9353ZM28.7118 37.5554L35.6923 39.4255L37.5624 32.446L30.5819 30.5749L28.7118 37.5554Z"/>
  </g>

  <!-- Smiley card (center front): 94px card tilted -15deg + 72px upright face, centered at (162.30, 90.39) -->
  <rect x="0" y="0" width="94" height="94" rx="3.748" fill="none" stroke="#F7F7F8" stroke-width="1.5" opacity="0.16" transform="translate(162.30 90.39) rotate(-15) translate(-47 -47)"/>
  <g transform="translate(162.30 90.39) translate(-36 -36)" fill="#F7F7F8">
    <path d="M45.7755 47.6381C47.1933 42.3468 52.6326 39.2067 57.9239 40.6245L58.4845 40.7749C64.0858 42.2757 67.4101 48.0328 65.9093 53.6342L64.1622 60.1538C62.6613 65.7551 56.9041 69.0793 51.3028 67.5786L46.21 66.2143C43.5206 65.4936 41.2274 63.7339 39.835 61.3227L35.3741 53.5961C34.0637 51.3264 34.5639 48.445 36.5177 46.728C39.0801 44.4763 43.1111 45.0878 44.8341 48.0717C45.0419 48.4318 45.5819 48.361 45.6895 47.9594L45.7755 47.6381ZM57.1466 43.5219C53.4557 42.5332 49.6619 44.7237 48.6729 48.4145L48.587 48.7358C47.7876 51.719 43.7807 52.2464 42.2364 49.5717C41.4773 48.2571 39.6655 47.9574 38.4991 48.9819C37.6046 49.768 37.3863 51.082 37.9718 52.0961L42.4327 59.8227C43.4272 61.545 45.0654 62.802 46.9864 63.3169L52.0792 64.6811C56.0801 65.753 60.1927 63.3783 61.2647 59.3774L63.0118 52.8579C64.0839 48.8569 61.7091 44.7444 57.7081 43.6723L57.1466 43.5219ZM12.6759 16.1665C14.4984 9.36482 21.4894 5.32834 28.2911 7.15084L54.3712 14.1391C59.4127 15.4902 62.9322 19.6797 63.6768 24.5219C63.8027 25.3407 63.2407 26.107 62.422 26.2329C61.6032 26.3587 60.8369 25.7968 60.711 24.978C60.1407 21.2691 57.4461 18.0687 53.5948 17.0366L27.5147 10.0483C22.3135 8.65462 16.967 11.7416 15.5733 16.9428L8.58504 43.0229C7.19153 48.2241 10.2784 53.5707 15.4796 54.9643L29.6387 58.7583C30.4386 58.9729 30.9136 59.7952 30.6993 60.5952C30.4848 61.3953 29.6615 61.8701 28.8614 61.6557L14.7032 57.8618C7.9016 56.0393 3.86525 49.0481 5.68758 42.2465L12.6759 16.1665ZM34.8204 36.7504C36.1702 36.7505 37.3807 38.1707 36.6524 39.6469C35.3083 42.371 32.4997 44.2503 29.2501 44.2504C26.0004 44.2504 23.1919 42.371 21.8477 39.6469C21.1195 38.1708 22.33 36.7506 23.6798 36.7504H34.8204ZM53.3839 31.559C55.8038 31.2604 58.3195 31.413 60.8145 32.0815C63.3094 32.7501 65.5645 33.8756 67.5108 35.3442C68.1717 35.8432 68.3035 36.7836 67.8048 37.4448C67.3059 38.1059 66.3654 38.2374 65.7042 37.7387C64.0605 36.4984 62.1534 35.546 60.0372 34.979C57.9211 34.412 55.7935 34.2843 53.7501 34.5366C52.9283 34.6375 52.1797 34.0528 52.0782 33.2309C51.9768 32.4088 52.5618 31.6605 53.3839 31.559ZM21.3751 22.5004C23.239 22.5005 24.7501 24.0115 24.7501 25.8754C24.7499 27.7392 23.2389 29.2504 21.3751 29.2504C19.5113 29.2504 18.0003 27.7392 18.0001 25.8754C18.0001 24.0115 19.5111 22.5004 21.3751 22.5004ZM37.1251 22.5004C38.989 22.5005 40.5001 24.0115 40.5001 25.8754C40.4999 27.7392 38.9889 29.2504 37.1251 29.2504C35.2613 29.2504 33.7503 27.7392 33.7501 25.8754C33.7501 24.0115 35.2611 22.5004 37.1251 22.5004Z"/>
  </g>
</svg>
